<svg width="203" height="139" viewBox="0 0 203 139" fill="none" xmlns="http://www.w3.org/2000/svg">
<g filter="url(#filter0_d_101_17)">
<rect x="39.5" y="88.9489" width="125" height="27" stroke="#006F57" shape-rendering="crispEdges"/>
</g>
<g filter="url(#filter1_d_101_17)">
<path d="M71.1889 59.3608L71.2358 59.3417L71.2779 59.3135L85.7696 49.6252L93.2218 45.0626L101.161 42.0248L116.587 37.4548L125.015 36.9489H132.953L140.849 38.4597L148.762 41.9924L156.699 47.0542L163.523 53.0224L164.446 61.9489H161.5H157H149H133H102H39.5V54.2958H45.4332L52.8247 56.3071L61.2836 60.369L61.3344 60.3934L61.3894 60.4059L65.8894 61.4263L66.0431 61.4611L66.1889 61.4016L71.1889 59.3608Z" stroke="#006F57" shape-rendering="crispEdges"/>
</g>
<g filter="url(#filter2_d_101_17)">
<path d="M36.0822 54.9421L36.1053 54.9383L36.1279 54.9323L37.4846 54.5734H38.5V129.949H4.5V84.156L5.35355 83.3024L5.38856 83.2674L5.41602 83.2262L6.41602 81.7262L8.41603 78.7262L10.416 75.7262L10.4449 75.6829L10.4642 75.6346L11.4469 73.1779L18.3729 62.2942L20.2794 60.8644L22.7572 59.3777L25.2229 57.8983L27.6591 56.9238L33.1072 55.4379L36.0822 54.9421Z" stroke="#006F57" shape-rendering="crispEdges"/>
</g>
<g filter="url(#filter3_d_101_17)">
<path d="M198.5 8.01891V129.949H164.5V53.9205L167.209 55.8558L167.28 55.9059L167.363 55.9296L170.863 56.9296L170.991 56.9664L171.121 56.934L175.121 55.934L175.213 55.9109L175.291 55.8558L178.791 53.3558L178.851 53.3126L178.896 53.2537L181.396 50.0037L183.896 46.7537L183.914 46.7309L183.929 46.7061L188.429 39.2061L188.455 39.1629L188.471 39.1153L194.471 22.1153L194.477 22.1009L194.481 22.0862L198.5 8.01891Z" stroke="#006F57" shape-rendering="crispEdges"/>
</g>
<path d="M4.5 83.4489C14.6753 70.3234 13.6777 56.1831 38.5 53.9489C60.3352 52.708 58.5 66.9487 74.5 56.9487C90.5 46.9487 86.5 45.9494 107 39.9493C127.5 33.9492 145 34.9487 165 53.4489C185 71.9491 202 -8.551 198 1.94888" stroke="#006F57"/>
<defs>
<filter id="filter0_d_101_17" x="35" y="88.4489" width="134" height="36" filterUnits="userSpaceOnUse" color-interpolation-filters="sRGB">
<feFlood flood-opacity="0" result="BackgroundImageFix"/>
<feColorMatrix in="SourceAlpha" type="matrix" values="0 0 0 0 0 0 0 0 0 0 0 0 0 0 0 0 0 0 127 0" result="hardAlpha"/>
<feOffset dy="4"/>
<feGaussianBlur stdDeviation="2"/>
<feComposite in2="hardAlpha" operator="out"/>
<feColorMatrix type="matrix" values="0 0 0 0 0 0 0 0 0 0 0 0 0 0 0 0 0 0 0.25 0"/>
<feBlend mode="normal" in2="BackgroundImageFix" result="effect1_dropShadow_101_17"/>
<feBlend mode="normal" in="SourceGraphic" in2="effect1_dropShadow_101_17" result="shape"/>
</filter>
<filter id="filter1_d_101_17" x="35" y="36.4489" width="134" height="34" filterUnits="userSpaceOnUse" color-interpolation-filters="sRGB">
<feFlood flood-opacity="0" result="BackgroundImageFix"/>
<feColorMatrix in="SourceAlpha" type="matrix" values="0 0 0 0 0 0 0 0 0 0 0 0 0 0 0 0 0 0 127 0" result="hardAlpha"/>
<feOffset dy="4"/>
<feGaussianBlur stdDeviation="2"/>
<feComposite in2="hardAlpha" operator="out"/>
<feColorMatrix type="matrix" values="0 0 0 0 0 0 0 0 0 0 0 0 0 0 0 0 0 0 0.25 0"/>
<feBlend mode="normal" in2="BackgroundImageFix" result="effect1_dropShadow_101_17"/>
<feBlend mode="normal" in="SourceGraphic" in2="effect1_dropShadow_101_17" result="shape"/>
</filter>
<filter id="filter2_d_101_17" x="0" y="54.0734" width="43" height="84.3755" filterUnits="userSpaceOnUse" color-interpolation-filters="sRGB">
<feFlood flood-opacity="0" result="BackgroundImageFix"/>
<feColorMatrix in="SourceAlpha" type="matrix" values="0 0 0 0 0 0 0 0 0 0 0 0 0 0 0 0 0 0 127 0" result="hardAlpha"/>
<feOffset dy="4"/>
<feGaussianBlur stdDeviation="2"/>
<feComposite in2="hardAlpha" operator="out"/>
<feColorMatrix type="matrix" values="0 0 0 0 0 0 0 0 0 0 0 0 0 0 0 0 0 0 0.25 0"/>
<feBlend mode="normal" in2="BackgroundImageFix" result="effect1_dropShadow_101_17"/>
<feBlend mode="normal" in="SourceGraphic" in2="effect1_dropShadow_101_17" result="shape"/>
</filter>
<filter id="filter3_d_101_17" x="160" y="4.44888" width="43" height="134" filterUnits="userSpaceOnUse" color-interpolation-filters="sRGB">
<feFlood flood-opacity="0" result="BackgroundImageFix"/>
<feColorMatrix in="SourceAlpha" type="matrix" values="0 0 0 0 0 0 0 0 0 0 0 0 0 0 0 0 0 0 127 0" result="hardAlpha"/>
<feOffset dy="4"/>
<feGaussianBlur stdDeviation="2"/>
<feComposite in2="hardAlpha" operator="out"/>
<feColorMatrix type="matrix" values="0 0 0 0 0 0 0 0 0 0 0 0 0 0 0 0 0 0 0.25 0"/>
<feBlend mode="normal" in2="BackgroundImageFix" result="effect1_dropShadow_101_17"/>
<feBlend mode="normal" in="SourceGraphic" in2="effect1_dropShadow_101_17" result="shape"/>
</filter>
</defs>
</svg>
