<svg width="139" height="140" viewBox="0 0 139 140" fill="none" xmlns="http://www.w3.org/2000/svg">
<path d="M1.49998 80.5H32.5V131.653L24.8511 134.522L16.8787 136.515L12.908 137.508L8.96885 138H4.08112L1.49998 137.14V80.5Z" stroke="black"/>
<path d="M1.49998 80.5H32.5V131.653L24.8511 134.522L16.8787 136.515L12.908 137.508L8.96885 138H4.08112L1.49998 137.14V80.5Z" stroke="black" stroke-opacity="0.2"/>
<path d="M1.49998 80.5H32.5V131.653L24.8511 134.522L16.8787 136.515L12.908 137.508L8.96885 138H4.08112L1.49998 137.14V80.5Z" stroke="black" stroke-opacity="0.2"/>
<path d="M1.49998 80.5H32.5V131.653L24.8511 134.522L16.8787 136.515L12.908 137.508L8.96885 138H4.08112L1.49998 137.14V80.5Z" stroke="black" stroke-opacity="0.2"/>
<path d="M50.7937 124.045L55.3197 121.956L33.5 121.51V131.269L41.8077 128.038L50.7937 124.045Z" stroke="black"/>
<path d="M50.7937 124.045L55.3197 121.956L33.5 121.51V131.269L41.8077 128.038L50.7937 124.045Z" stroke="black" stroke-opacity="0.2"/>
<path d="M50.7937 124.045L55.3197 121.956L33.5 121.51V131.269L41.8077 128.038L50.7937 124.045Z" stroke="black" stroke-opacity="0.2"/>
<path d="M50.7937 124.045L55.3197 121.956L33.5 121.51V131.269L41.8077 128.038L50.7937 124.045Z" stroke="black" stroke-opacity="0.2"/>
<path d="M90.5 0.5H122.5V77.7929L121.16 79.1329L114.184 85.1126L105.206 92.0953L90.5 102.057V0.5Z" stroke="black"/>
<path d="M90.5 0.5H122.5V77.7929L121.16 79.1329L114.184 85.1126L105.206 92.0953L90.5 102.057V0.5Z" stroke="black" stroke-opacity="0.2"/>
<path d="M90.5 0.5H122.5V77.7929L121.16 79.1329L114.184 85.1126L105.206 92.0953L90.5 102.057V0.5Z" stroke="black" stroke-opacity="0.2"/>
<path d="M90.5 0.5H122.5V77.7929L121.16 79.1329L114.184 85.1126L105.206 92.0953L90.5 102.057V0.5Z" stroke="black" stroke-opacity="0.2"/>
<path d="M1.49998 49.5H137.226L138.487 54.0226L137.591 58.8465L133.929 66.7268L122.972 79.5H1.49998V49.5Z" stroke="black"/>
<path d="M1.49998 49.5H137.226L138.487 54.0226L137.591 58.8465L133.929 66.7268L122.972 79.5H1.49998V49.5Z" stroke="black" stroke-opacity="0.2"/>
<path d="M1.49998 49.5H137.226L138.487 54.0226L137.591 58.8465L133.929 66.7268L122.972 79.5H1.49998V49.5Z" stroke="black" stroke-opacity="0.2"/>
<path d="M1.49998 49.5H137.226L138.487 54.0226L137.591 58.8465L133.929 66.7268L122.972 79.5H1.49998V49.5Z" stroke="black" stroke-opacity="0.2"/>
</svg>
