<svg width="119" height="193" viewBox="0 0 119 193" fill="none" xmlns="http://www.w3.org/2000/svg">
<path d="M40.309 1.5H118.5V31.5H72.5H49H37H26.6019L36.3763 20.3293L36.4104 20.2903L36.4358 20.2451L40.9358 12.2451L40.9688 12.1865L40.9851 12.1213L42.4851 6.12127L42.5299 5.94183L42.4472 5.77639L40.309 1.5Z" stroke="#006F57"/>
<path d="M118.5 74.5V104.5H10.561L13.4637 79.3436L24.604 74.5H38H65H118.5Z" stroke="#006F57"/>
<path d="M25.5 148.5H118.5V178.5H72H25.5V148.5Z" stroke="#006F57"/>
<rect x="85.5" y="1.5" width="33" height="191" stroke="#006F57"/>
<path d="M2.42268 50.0006L9.60404 45.3763L9.62248 45.3644L9.63981 45.351L17.9907 38.873L17.9993 38.8663L18.0077 38.8593L26.0108 32.0706L27.4949 178.5H20.1369L19.8428 178.326L21.0619 176.265L21.1128 176.179L21.1267 176.08L21.6179 172.592L21.6362 172.462L21.5884 172.34L19.6235 167.318L19.5745 167.192L19.4691 167.109L13.8112 162.609L13.7966 162.597L13.7812 162.587L1.50796 154.241L1.96573 138.911L13.0478 131.58L13.0479 131.58L13.0593 131.572L19.4453 127.087L19.571 126.999L19.6254 126.855L21.9675 120.677L22.0443 120.475L21.9491 120.28L19.607 115.495L19.5863 115.453L19.5581 115.415L16.4002 111.2L16.3547 111.139L16.2932 111.095L7.66164 104.846L7.63025 104.823L7.59575 104.806L1.5 101.694V94V87.2737L14.0238 79.2619L14.0378 79.2529L14.0512 79.243L19.4547 75.2566L19.5673 75.1736L19.6204 75.0442L22.0765 69.0645L22.1546 68.8746L22.0765 68.6846L19.6204 62.7049L19.5783 62.6025L19.4969 62.5273L14.0933 57.5443L14.0617 57.5151L14.0256 57.4918L2.42268 50.0006Z" stroke="#006F57"/>
<path d="M1.00143 50C46.1454 73.5862 0.706392 81.6667 1.00143 88" stroke="#006F57"/>
<path d="M1.00143 102C46.1454 125.586 0.706392 133.667 1.00143 140" stroke="#006F57"/>
<path d="M1.0014 155C29.5 172 19.205 172.667 19.5 179" stroke="#006F57"/>
<path d="M1 88C1 92.274 1 99.7808 1 103" stroke="#006F57"/>
<path d="M1 140C1 144.274 1 151.781 1 155" stroke="#006F57"/>
<path d="M40 1C50.5 17.5 5.5 47.5 1.5 50" stroke="#006F57"/>
</svg>
