<?xml version="1.0" encoding="UTF-8" standalone="no" ?>
<!DOCTYPE svg PUBLIC "-//W3C//DTD SVG 1.1//EN" "http://www.w3.org/Graphics/SVG/1.1/DTD/svg11.dtd">
<svg xmlns="http://www.w3.org/2000/svg" xmlns:xlink="http://www.w3.org/1999/xlink" version="1.1" width="500" height="500" viewBox="0 0 500 500" xml:space="preserve">
<desc>Created with Fabric.js 4.6.0</desc>
<defs>
</defs>
<g transform="matrix(1 0 0 1 232.09 245.83)" id="48qZ3onLklLOXBJgfXZDG"  >
<path style="stroke: rgb(0,0,0); stroke-width: 1; stroke-dasharray: none; stroke-linecap: butt; stroke-dashoffset: 0; stroke-linejoin: miter; stroke-miterlimit: 4; fill: rgb(255,255,255); fill-opacity: 0; fill-rule: nonzero; opacity: 1;" vector-effect="non-scaling-stroke"  transform=" translate(0, 0)" d="M -72.33164 -74.2019 L -33.75596999999999 -74.2019 L -33.75596999999999 -35.56209 L 28.56226000000001 -35.56209 C 28.56226000000001 -35.56209 30.791460000000008 -74.97291999999999 28.56226000000001 -74.2019 C 26.33306000000001 -73.43088 -16.71795999999999 -74.2019 -16.71795999999999 -74.2019 L -16.71795999999999 -86.81317999999999 L 11.504010000000008 -86.81317999999999 L 11.504010000000008 -95.71525999999999 L 72.33165000000001 -95.71525999999999 L 72.33165000000001 95.71525000000001 L -38.206999999999994 95.71525000000001 L -22.46484999999999 79.97310000000002 L -42.618359999999996 59.81959000000002 L -42.618359999999996 23.54222000000002 L -33.75595 23.54222000000002 L -33.75595 59.81959000000002 L 31.58242 59.81959000000002 L 31.58242 5.174950000000017 L -42.618359999999996 5.174950000000017 L -29.304909999999996 -17.822079999999982 L -42.618359999999996 -17.822079999999982 L -42.618359999999996 -35.56208999999998 L -72.33161999999999 -35.56208999999998 z" stroke-linecap="round" />
</g>
</svg>